<svg xmlns="http://www.w3.org/2000/svg" fill="none" viewBox="0 0 200 200">
  <path fill="#000" stroke="#000" stroke-width=".304285" d="M52.1049 152.885c-3.687 3.071-9.7823.793-11.7502-2.829-2.8371-5.215-.4212-11.314 5.563-12.834 5.3678-1.359 10.3911 2.902 10.9003 8.266.0255.253.2182.479.5781.678 11.8383 6.493 24.8635 14.246 38.6238 21.758.1123.061.2271.065.3445.012 2.3406-1.029 4.6146-1.167 6.8226-.414 5.058 1.731 7.979 7.677 4.782 12.428-4.054 6.03-13.2279 5.529-15.7127-1.662-.2719-.796-.2949-1.857-.4365-2.783-.0097-.061-.0317-.118-.0647-.17-.0329-.051-.0761-.095-.1267-.129-1.0542-.689-2.1186-1.345-3.1932-1.968-11.948-6.896-23.9547-13.69-36.0202-20.38-.1098-.061-.2131-.052-.3101.027Zm110.0181-6.379c-.209 2.253-1.326 4.33-3.105 5.772-1.778 1.442-4.073 2.133-6.379 1.919-1.142-.106-2.253-.431-3.268-.956-1.016-.525-1.916-1.24-2.65-2.104-.735-.864-1.288-1.86-1.63-2.931-.341-1.072-.464-2.198-.36-3.314.209-2.253 1.326-4.33 3.104-5.772 1.779-1.443 4.074-2.133 6.38-1.919 1.142.106 2.253.431 3.268.956 1.015.525 1.916 1.24 2.65 2.104.734.864 1.288 1.86 1.629 2.931.342 1.072.464 2.198.361 3.314Z"/>
  <path fill="#000" stroke="#000" stroke-width=".304285" d="M90.6145 185.458c5.387 3.147 9.6255 5.984 15.6975 2.408 17.028-10.016 34.161-19.853 51.4-29.512 2.047-1.148 4.25-2.437 6.608-3.867 5.376-3.251 10.802-6.415 16.28-9.491 1.612-.904 2.588-3.109 1.424-4.736-.605-.85-1.926-1.512-2.91-2.079-5.439-3.117-10.942-6.24-16.509-9.369-.04-.023-.074-.055-.098-.095-.023-.04-.036-.085-.038-.131-.001-.047.01-.092.032-.133.022-.041.054-.075.093-.1l7.657-4.798c.133-.081.267-.083.402-.003 5.113 2.94 10.211 5.874 15.296 8.802 7.749 4.46 8.216 14.315.214 18.978-28.57 16.653-53.628 31.142-75.176 43.468-3.178 1.817-5.474 2.912-6.888 3.285-3.479.908-6.9208.519-10.3258-1.168-5.0998-2.531-11.1874-6.344-15.9656-9.101-20.0291-11.545-40.0748-23.059-60.1371-34.542-3.0579-1.751-5.0488-3.123-5.9728-4.116-3.41898-3.68-3.66402-10.782.3561-14.622.6305-.605 1.7854-1.373 3.465-2.305 4.9798-2.762 9.8614-5.688 14.6447-8.779.1148-.074.2335-.077.356-.008l8.3236 4.798c.0159.009.0292.022.0384.038.0092.015.0141.033.0141.052 0 .018-.0049.036-.0141.052s-.0225.029-.0384.038c-5.6231 3.17-11.2461 6.39-16.8692 9.659-1.5519.901-2.4172 1.445-2.5958 1.631-1.2597 1.298-1.1027 4.078.6126 5.119 5.6166 3.404 11.6353 6.624 17.0644 9.767 17.8263 10.326 35.7752 20.461 53.5594 30.86Zm-34.2151-82.535c0 2.295-.9116 4.496-2.5344 6.119-1.6227 1.623-3.8236 2.534-6.1184 2.534-2.2949 0-4.4958-.911-6.1185-2.534-1.6227-1.623-2.5343-3.824-2.5343-6.119s.9116-4.4954 2.5343-6.1181c1.6227-1.6228 3.8236-2.5344 6.1185-2.5344 2.2948 0 4.4957.9116 6.1184 2.5344 1.6228 1.6227 2.5344 3.8231 2.5344 6.1181Z"/>
  <path fill="#000" stroke="#000" stroke-width=".304285" d="M144.636 102.237c.425-6.2142 7.309-9.6294 12.528-6.888 5.44 2.86 6.876 10.387 1.673 14.312-2.96 2.232-7.056 2.584-10.18.283-.082-.059-.168-.064-.257-.015l-38.942 21.942c-.08.046-.146.113-.19.195-.043.081-.062.173-.055.264.376 4.666-1.608 7.84-5.949 9.522-1.322.513-2.738.619-4.2463.318-4.7706-.95-7.6459-5.242-6.7806-10.05.9725-5.414 6.4437-8.458 11.5549-6.57.12.046.235.037.345-.027l40.304-22.976c.056-.032.102-.077.136-.131.034-.054.055-.116.059-.179Z"/>
  <path fill="#000" stroke="#000" stroke-width=".304285" d="m31.6599 81.278 7.887 4.5255c.0225.0129.0411.0314.0542.0537.0132.0223.0202.0476.0206.0735.0004.0259-.0059.0514-.0184.074-.0124.0227-.0305.0418-.0525.0553-6.3454 3.7215-12.6742 7.3919-18.9865 11.0113-1.5812.9074-2.2933 1.9756-1.899 3.7637.2604 1.187 1.3094 1.842 2.3164 2.397 5.1891 2.856 10.3323 5.791 15.4296 8.806 6.1909 3.656 12.5236 7.121 18.6763 10.777 9.7095 5.774 19.4739 11.452 29.2932 17.034 2.458 1.399 4.9045 2.818 7.3396 4.258 3.336 1.97 5.3742 3.069 6.1144 3.296 2.6902.827 5.4192.435 8.1862-1.175 33.707-19.626 58.448-34.001 74.222-43.126 1.49-.862 2.646-2.236 2.072-4.0206-.399-1.2482-1.754-2.0483-2.864-2.7069-5.669-3.3616-11.452-6.7002-17.348-10.0158-.255-.143-.285-.3229-.088-.5399.128-.1403.337-.3063.628-.4977 2.32-1.5162 4.673-2.9813 7.06-4.3953.112-.0664.226-.0651.341.0038 5.448 3.3654 11.551 6.6313 16.704 9.8627 4.794 3.0055 6.635 8.6184 4.139 13.7257-1.842 3.768-5.107 5.1-8.591 7.091-13.102 7.481-26.152 15.053-39.149 22.715-11.182 6.591-22.41 13.105-33.684 19.542-5.311 3.032-9.8364 4.514-15.499 1.298-20.3354-11.558-40.5521-23.318-60.6502-35.281-5.965-3.55-12.202-6.789-18.2666-10.234-2.6226-1.49-4.8165-3.844-5.66261-6.727-1.02992-3.5075.06892-7.5085 2.57671-10.1465.7274-.7657 2.1058-1.728 4.135-2.8868 4.9824-2.8409 9.8946-5.7111 14.7366-8.6107.1226-.0743.2642-.1134.4097-.1134.1455 0 .2897.0391.4173.1134Z"/>
  <path fill="#000" fill-rule="evenodd" d="M111.668 5.25962c-5.013-2.92376-9.05-5.2781149-14.7159-3.81058-1.3374.34458-3.544 1.41789-6.6197 3.21992-4.2884 2.50992-8.6171 4.95267-12.9451 7.39514-4.9149 2.7735-9.8293 5.5468-14.6827 8.4173-14.3754 8.4997-30.2989 17.6949-47.7705 27.5857-5.69706 3.2237-8.03638 10.6131-3.442 15.8124.8806.998 2.5129 2.1773 4.8969 3.5377 3.3667 1.922 8.5265 4.8076 15.4794 8.6567 4.6735 2.5856 15.7754 8.9923 33.3057 19.22 3.8848 2.2665 13.1439 7.5311 27.7771 15.7931 3.8006 2.144 7.6098 2.712 11.4288 1.704 1.404-.37 3.694-1.473 6.872-3.308 3.564-2.058 7.126-4.118 10.689-6.178l.004-.002c21.28-12.3044 42.565-24.611 64.016-36.6171 1.565-.8729 2.631-1.608 3.197-2.2053 2.592-2.7145 3.339-6.8839 2.229-10.3757-.797-2.4937-2.451-4.4719-4.962-5.9345-12.4-7.2157-24.841-14.3613-37.322-21.4367-12.267-6.9529-24.499-13.9671-36.694-21.04248-.25-.14497-.497-.28896-.741-.4316ZM94.1189 102.159c2.7873 1.631 5.5554 2.527 8.6991 1.853 1.166-.25 3.1-1.172 5.8-2.765 3.937-2.3181 7.947-4.6312 11.978-6.9564 6.107-3.5227 12.262-7.0731 18.284-10.7125 2.697-1.6309 6.201-3.5782 9.912-5.6411 3.66-2.0341 7.522-4.1807 11.012-6.247 6.973-4.1298 14.015-8.1436 21.126-12.0412.58-.319.968-.6904 1.164-1.1141 1.038-2.2743-.517-3.553-2.266-4.5523-15.534-8.8698-31.087-17.7051-46.657-26.506-8.737-4.939-17.435-9.9405-26.096-15.0046-4.602-2.68772-8.0133-2.86002-12.646-.3561-6.3843 3.4568-12.6892 7.2078-18.8464 10.8709-4.045 2.4066-8.0264 4.7752-11.9247 6.9976-13.8394 7.8871-27.6775 15.7754-41.5144 23.6651-.1.0571-.2029.1152-.3078.1744-1.0542.595-2.3048 1.3009-2.8585 2.2759-1.1792 2.0752.3905 3.2621 2.1288 4.2269 19.0693 10.5927 31.0225 17.3363 35.8594 20.2308 7.4204 4.4392 14.9147 8.753 22.4088 13.0667 4.922 2.8331 9.8439 5.6661 14.7447 8.535Z" clip-rule="evenodd"/>
  <path stroke="#000" stroke-width=".304285" d="M121.941 103.305c-3.563 2.06-7.125 4.12-10.689 6.178-3.178 1.835-5.468 2.938-6.872 3.308-3.819 1.008-7.6282.44-11.4288-1.704-14.6332-8.262-23.8923-13.5266-27.7771-15.7931-17.5303-10.2277-28.6322-16.6344-33.3057-19.22-6.9529-3.8491-12.1127-6.7347-15.4794-8.6567-2.384-1.3604-4.0163-2.5397-4.8969-3.5377-4.59438-5.1993-2.25506-12.5887 3.442-15.8124 17.4716-9.8908 33.3951-19.086 47.7705-27.5857 4.8534-2.8705 9.7678-5.6438 14.6827-8.4173 4.328-2.44247 8.6567-4.88522 12.9451-7.39514 3.0757-1.80203 5.2823-2.87534 6.6197-3.21992 5.6659-1.4675349 9.7029.88682 14.7159 3.81058.244.14264.491.28663.741.4316 12.195 7.07538 24.427 14.08958 36.694 21.04248 12.481 7.0754 24.922 14.221 37.322 21.4367 2.511 1.4626 4.165 3.4408 4.962 5.9345 1.11 3.4918.363 7.6612-2.229 10.3757-.566.5973-1.632 1.3324-3.197 2.2053-21.451 12.0061-42.736 24.3127-64.016 36.6171m-.004.002.004-.002m-.004.002c.002-.001.003-.002.004-.002m-19.127.709c-3.1437.674-5.9118-.222-8.6991-1.853-4.9008-2.8689-9.8227-5.7019-14.7447-8.535-7.4941-4.3137-14.9884-8.6275-22.4088-13.0667-4.8369-2.8945-16.7901-9.6381-35.8594-20.2308-1.7383-.9648-3.308-2.1517-2.1288-4.2269.5537-.975 1.8043-1.6809 2.8585-2.2759.1049-.0592.2078-.1173.3078-.1744 13.8369-7.8897 27.675-15.778 41.5144-23.6651 3.8983-2.2224 7.8797-4.591 11.9247-6.9976 6.1572-3.6631 12.4621-7.4141 18.8464-10.8709 4.6327-2.50392 8.044-2.33162 12.646.3561 8.661 5.0641 17.359 10.0656 26.096 15.0046 15.57 8.8009 31.123 17.6362 46.657 26.506 1.749.9993 3.304 2.278 2.266 4.5523-.196.4237-.584.7951-1.164 1.1141-7.111 3.8976-14.153 7.9114-21.126 12.0412-3.49 2.0663-7.352 4.2129-11.012 6.247-3.711 2.0629-7.215 4.0102-9.912 5.6411-6.022 3.6394-12.177 7.1898-18.284 10.7125-4.031 2.3252-8.041 4.6383-11.978 6.9564-2.7 1.593-4.634 2.515-5.8 2.765Z"/>
  <path fill="#000" stroke="#000" stroke-width=".304285" d="M109.046 27.1583c-.013.037-.012.0771.001.1134.013.0363.039.0666.072.0856l11.915 6.9491c.059.0339.126.0517.195.0517.068 0 .136-.0178.195-.0517 4.755-2.726 10.862-.1187 12.39 4.8663 1.298 4.2345-.544 8.5379-4.599 10.3489-5.892 2.6265-12.271-1.5047-12.393-7.9675-.001-.0588-.015-.1167-.041-.1696-.026-.0529-.063-.0995-.108-.1367-.57-.4646-1.174-.887-1.815-1.2673-3.76-2.2436-7.544-4.4425-11.352-6.5968-.112-.0638-.23-.0715-.352-.023-.617.2489-1.157.5399-1.819.5667-10.7969.4747-12.9142-15.2114-2.3968-17.4627 2.3868-.513 4.6368.0498 6.7498 1.6885 2.588 2.0062 4.518 5.6741 3.358 9.0051ZM84.0827 43.6324c-.0409.0907-.0468.1934-.0164.2881.0305.0948.095.1749.181.2249l13.2128 7.7378c.1021.0587.2093.0714.3216.0382 3.3563-.952 6.2793-.2463 8.7673 2.1173 4.346 4.1312 3.385 10.6284-1.776 13.5306-3.362 1.8888-6.6518 1.5263-9.8704-1.0874-2.3764-1.9322-3.3055-4.5574-2.7873-7.8756.0094-.0608.0031-.1229-.0184-.1806-.0214-.0576-.0573-.1088-.1041-.1486-.5335-.4646-1.2763-.9725-2.2283-1.5239-3.9844-2.3125-7.9662-4.6276-11.9455-6.9452-.1149-.0663-.2336-.0778-.3561-.0344-1.9526.7044-3.7802.4709-5.4827-.7007-.0701-.0486-.1533-.075-.2387-.0757-.0853-.0007-.1689.0244-.2398.0719-4.5868 3.1242-9.7364 5.6703-14.6026 8.3503-.1149.0613-.171.157-.1685.2872l.0191 2.3623c.0013.1139.0327.2256.0912.3238.0585.0982.1419.1793.2419.2352l14.2887 8.0593c.1089.0616.2306.0965.3551.1019.1245.0053.2482-.0191.3608-.0712 7.6574-3.5798 15.4871 5.3525 10.7548 12.5351-.9138 1.386-2.1734 2.4248-3.7789 3.1165-4.6557 1.9986-9.5794-.1302-11.5435-4.7858-.49-1.1639-.3101-2.2934-.3714-3.576-.0076-.1532-.0778-.268-.2105-.3446l-14.6333-8.4269c-.1225-.0715-.2437-.0689-.3637.0076-2.1976 1.4039-4.4476 1.7242-6.7499.961-10.4102-3.4534-6.2485-18.4389 4.3417-16.605.3624.0639.7262.1277 1.0912.1915.1352.0229.2629 0 .3828-.0689l15.7359-9.2961c.086-.0506.1582-.1214.2103-.2062.0521-.0848.0824-.181.0883-.28.2783-4.5051 2.3253-7.3039 6.1412-8.3963 6.191-1.7727 11.7426 3.1395 11.0535 9.4224-.0307.2807-.0817.5028-.1532.6662Zm64.2103 23.7644-14.006 7.9751c-.055.0305-.1.077-.13.1335-.029.0565-.041.1206-.034.1843.7 7.3625-7.907 12.0259-13.749 7.688-4.874-3.6181-4.591-10.9501.62-14.0513 2.575-1.5289 5.37-1.7216 8.385-.5781.05.0192.104.027.158.0231.053-.004.105-.0197.152-.0461l14.721-8.5571c.05-.0299.092-.0707.124-.1192.031-.0485.05-.1034.056-.1603.682-6.5968 7.554-10.4599 13.404-6.8954 3.864 2.3546 5.429 7.7415 2.788 11.6927-2.321 3.4688-7.761 5.1649-11.433 3.0132-.219-.1276-.448-.2374-.685-.3293-.06-.0238-.124-.0338-.188-.0292-.065.0046-.127.0238-.183.0561Zm-39.081 23.3926c0 2.2837-.908 4.4739-2.522 6.0887-1.615 1.6148-3.805 2.522-6.089 2.522-1.1308 0-2.2505-.2227-3.2952-.6554-1.0447-.4328-1.994-1.067-2.7935-1.8666-.7996-.7996-1.4339-1.7488-1.8666-2.7935-.4327-1.0447-.6555-2.1644-.6555-3.2952 0-1.1307.2228-2.2505.6555-3.2952.4327-1.0447 1.067-1.9939 1.8666-2.7935.7995-.7995 1.7488-1.4338 2.7935-1.8665 1.0447-.4328 2.1644-.6555 3.2952-.6555 2.284 0 4.474.9072 6.089 2.522 1.614 1.6149 2.522 3.805 2.522 6.0887Z"/>
</svg>
